<svg width="184" height="58" viewBox="0 0 184 58" fill="none" xmlns="http://www.w3.org/2000/svg">
<rect width="184" height="58" fill="#1E1E1E"/>
<g id="Swachachhota" clip-path="url(#clip0_0_1)">
<rect width="1440" height="4448" transform="translate(-89 -70)" fill="#000216"/>
<g id="Ellipse 1" filter="url(#filter0_f_0_1)">
<circle cx="631.5" cy="-158.5" r="491.5" fill="#FFCC00" fill-opacity="0.15"/>
</g>
<g id="Frame 4" filter="url(#filter1_b_0_1)">
<rect x="-39" y="-20" width="1340" height="98" rx="49" fill="white" fill-opacity="0.1"/>
<g id="Frame 1">
<g id="Group">
<g id="Group_2">
<g id="Clip path group">
<mask id="mask0_0_1" style="mask-type:luminance" maskUnits="userSpaceOnUse" x="0" y="0" width="49" height="58">
<g id="SVGID_2_">
<path id="Vector" d="M0.501404 6.00876V29.2759L0.641343 29.6486C2.82885 35.4635 5.9444 40.8088 9.78911 45.4905C14.2304 50.888 18.6423 54.444 24.4977 58C30.3532 54.444 34.7724 50.8954 39.2063 45.4905C43.051 40.8088 46.1666 35.4635 48.3541 29.6486L48.494 29.2759V6.00876C40.5763 2.0427 33.2846 0.0447518 24.4977 0.0447518C15.7109 0.0372968 8.41179 2.0427 0.501404 6.00876Z" fill="white"/>
</g>
</mask>
<g mask="url(#mask0_0_1)">
<path id="Vector_2" d="M48.5014 0.0365143H0.501404V57.9843H48.5014V0.0365143Z" fill="url(#paint0_linear_0_1)"/>
</g>
</g>
</g>
<g id="Group_3">
<g id="Group_4">
<g id="Group_5">
<g id="Clip path group_2">
<mask id="mask1_0_1" style="mask-type:luminance" maskUnits="userSpaceOnUse" x="4" y="2" width="41" height="38">
<g id="SVGID_12_">
<path id="Vector_3" d="M44.2737 2.87758H4.72176V39.2058H44.2737V2.87758Z" fill="white"/>
</g>
</mask>
<g mask="url(#mask1_0_1)">
<path id="Vector_4" d="M5.21524 6.61251C17.4417 1.63256 31.5611 1.63256 43.7802 6.61251L42.2114 7.76804C41.7842 7.61148 39.7956 6.85853 39.361 6.71688C29.7419 3.51868 19.2389 3.51868 9.61971 6.71688C9.19252 6.85853 7.19651 7.61148 6.76932 7.76804L5.21524 6.61251ZM44.2221 28.7837L35.6931 26.6889C33.6308 31.1843 30.5078 34.8148 26.6042 37.439V39.1984C30.5078 36.5668 33.6234 32.9362 35.6931 28.4483L43.5077 30.3642C43.7581 29.8424 43.9938 29.313 44.2221 28.7837ZM44.2737 9.76599L36.5622 15.4691V17.2285L44.2737 11.5254V9.76599ZM32.3418 15.7598C27.3555 13.665 21.64 13.665 16.6536 15.7598V17.5192C21.64 15.4169 27.3555 15.4169 32.3418 17.5192V15.7598ZM4.77331 28.7837L13.3024 26.6889C15.3647 31.1843 18.4876 34.8148 22.3912 37.439V39.1984C18.4876 36.5668 15.3647 32.9362 13.3024 28.4483L5.48775 30.3642C5.23733 29.8424 5.00164 29.313 4.77331 28.7837ZM4.72176 9.76599L12.4333 15.4691V17.2285L4.72176 11.5254V9.76599Z" fill="#56250C"/>
</g>
</g>
</g>
</g>
<g id="Group_6">
<g id="Group_7">
<g id="Clip path group_3">
<mask id="mask2_0_1" style="mask-type:luminance" maskUnits="userSpaceOnUse" x="0" y="0" width="49" height="53">
<g id="SVGID_21_">
<path id="Vector_5" d="M48.5014 0H0.501404V52.8486H48.5014V0Z" fill="white"/>
</g>
</mask>
<g mask="url(#mask2_0_1)">
<path id="Vector_6" d="M5.64891 8.21444C6.02455 8.06534 6.40018 7.91624 6.78318 7.76714L14.8188 13.7088C21.1824 10.9653 27.8186 10.9653 34.1823 13.7088L42.2179 7.76714C42.6009 7.90879 42.9765 8.05789 43.3522 8.21444L34.1823 14.9985C27.8186 12.2551 21.1824 12.2551 14.8188 14.9985L5.64891 8.21444ZM48.4932 7.28257V6.00031C32.503 -2.01383 16.4834 -2.01383 0.493164 6.00031V7.28257C16.4834 -0.724113 32.5104 -0.724113 48.4932 7.28257ZM24.4969 36.8119C26.1172 35.6861 27.5756 34.3368 28.8351 32.8011C30.2787 31.0417 31.4719 29.0363 32.341 26.8371V25.5548C30.7353 29.6103 28.0249 33.0844 24.4969 35.5296C20.9689 33.0844 18.2584 29.6103 16.6528 25.5548V26.8371C17.5219 29.0363 18.7151 31.0491 20.1587 32.8011C21.4181 34.3368 22.8765 35.6861 24.4969 36.8119ZM36.5613 24.28V25.5622L44.2728 27.4558V26.1736L36.5613 24.28ZM44.0224 30.49L43.5068 30.3633C41.2751 35.2314 39.3675 38.6309 35.9721 42.7609C33.2248 46.1008 30.0798 49.0604 26.6034 51.5653V52.8476C34.035 47.4949 40.3766 38.9813 44.0224 30.49ZM12.4324 24.28V25.5622L4.72088 27.4558V26.1736L12.4324 24.28ZM4.9713 30.49L5.48688 30.3633C7.71858 35.2314 9.62621 38.6309 13.0216 42.7609C15.7689 46.1008 18.9139 49.0604 22.3904 51.5653V52.8476C14.9587 47.4949 8.61716 38.9813 4.9713 30.49Z" fill="#F9FCBA"/>
</g>
</g>
</g>
</g>
</g>
<g id="Group_8">
<g id="Clip path group_4">
<mask id="mask3_0_1" style="mask-type:luminance" maskUnits="userSpaceOnUse" x="4" y="4" width="41" height="48">
<g id="SVGID_23_">
<path id="Vector_7" d="M5.48775 30.3717C7.43221 34.8969 9.98062 39.0642 13.0225 42.7694C15.7698 46.1092 18.9148 49.0688 22.3912 51.5737V39.2059C20.3731 37.8491 18.738 36.4475 16.9335 34.2483C15.4899 32.4964 14.2673 30.5506 13.3024 28.4557L5.48775 30.3717ZM32.0693 34.2483C30.2574 36.4475 28.6297 37.8491 26.6116 39.2059V51.5663C30.088 49.0614 33.233 46.1017 35.9803 42.7619C39.0222 39.0642 41.5706 34.8969 43.5151 30.3642L35.6931 28.4483C34.7356 30.5431 33.5129 32.4889 32.0693 34.2483ZM16.6536 17.5192V25.5557C17.5227 27.755 18.7159 29.7678 20.1595 31.5198C21.419 33.0555 22.8773 34.4048 24.4977 35.5305C26.1181 34.4048 27.5764 33.0555 28.8359 31.5198C30.2795 29.7604 31.4727 27.755 32.3418 25.5557V17.5192C29.8523 16.4681 27.1713 15.9462 24.4977 15.9462C21.8241 15.9462 19.1431 16.4681 16.6536 17.5192ZM4.72176 26.1745L12.4333 24.2809V17.2285L4.72176 11.5254V26.1745ZM36.5622 17.2285V24.2809L44.2737 26.1745V11.5254L36.5622 17.2285ZM6.77669 7.76808L14.8123 13.7097C17.9057 12.3753 20.7561 11.6745 24.4904 11.6745C28.232 11.6745 31.075 12.3753 34.1684 13.7097L42.204 7.76808C36.5548 5.46448 30.5226 4.31641 24.483 4.31641C18.4434 4.31641 12.4333 5.46448 6.77669 7.76808Z" fill="white"/>
</g>
</mask>
<g mask="url(#mask3_0_1)">
<path id="Vector_8" d="M44.2737 51.5663V4.31641H4.72176V51.5663H44.2737Z" fill="url(#paint1_linear_0_1)"/>
</g>
</g>
</g>
<g id="Group_9">
<g id="Group_10">
<g id="Group_11">
<g id="Clip path group_5">
<mask id="mask4_0_1" style="mask-type:luminance" maskUnits="userSpaceOnUse" x="7" y="9" width="35" height="39">
<g id="SVGID_33_">
<path id="Vector_9" d="M41.2318 9.77351H7.76363V47.4512H41.2318V9.77351Z" fill="white"/>
</g>
</mask>
<g mask="url(#mask4_0_1)">
<path id="Vector_10" d="M24.4977 34.0069C25.2195 33.3657 25.8824 32.6724 26.4937 31.9269C27.6354 30.5328 28.5781 28.9747 29.2926 27.3123V22.0714C26.1697 21.1693 22.8184 21.1693 19.6955 22.0714V27.3123C20.41 28.9747 21.3527 30.5328 22.4944 31.9269C23.113 32.6724 23.7759 33.3657 24.4977 34.0069ZM35.6341 11.1945C28.3498 9.29348 20.6383 9.29348 13.3539 11.1945L15.2542 12.6035C18.2593 11.4927 21.1465 10.9709 24.4977 10.9709C27.849 10.9709 30.7362 11.4927 33.7339 12.6035L35.6341 11.1945ZM41.2318 24.6284V19.9616L39.6041 21.1619V24.2333L41.2318 24.6284ZM29.6535 47.4483C31.0676 46.1063 32.4008 44.675 33.6381 43.1691C35.752 40.5971 37.6007 37.8015 39.1401 34.8418L37.2987 34.3871C36.4591 35.8706 35.4942 37.2722 34.4115 38.5917C32.9384 40.3809 31.4212 41.8421 29.6535 43.1765V47.4483ZM7.76364 24.6284L9.39139 24.2259V21.1619L7.76364 19.9616V24.6284ZM11.6967 34.3871L9.8554 34.8418C11.4021 37.8015 13.2435 40.5971 15.3573 43.1691C16.5947 44.675 17.9278 46.1063 19.342 47.4483V43.1765C17.5743 41.8421 16.057 40.3809 14.584 38.5917C13.5086 37.2722 12.5438 35.8706 11.6967 34.3871Z" fill="#185398"/>
</g>
</g>
</g>
</g>
<g id="Group_12">
<g id="Group_13">
<g id="Clip path group_6">
<mask id="mask5_0_1" style="mask-type:luminance" maskUnits="userSpaceOnUse" x="4" y="4" width="41" height="39">
<g id="SVGID_42_">
<path id="Vector_11" d="M44.2737 4.31641H4.72176V42.2997H44.2737V4.31641Z" fill="white"/>
</g>
</mask>
<g mask="url(#mask5_0_1)">
<path id="Vector_12" d="M32.3418 20.6184V17.5171C27.3555 15.4223 21.64 15.4223 16.6536 17.5171V20.6184C21.64 18.5161 27.3555 18.5161 32.3418 20.6184ZM42.2188 7.76598C30.9203 3.15879 18.0825 3.15879 6.78406 7.76598L9.57553 9.83102C19.2241 6.603 29.7787 6.603 39.4273 9.83102L42.2188 7.76598ZM44.2737 14.6246V11.5308L36.5622 17.2264V20.3202L44.2737 14.6246ZM42.2188 33.1428C42.6754 32.2333 43.11 31.3089 43.5151 30.3621L35.6931 28.4462C34.7282 30.541 33.5056 32.4868 32.0619 34.2387C30.2501 36.4379 28.6223 37.8395 26.6042 39.1963V42.2901C28.6223 40.9333 30.2574 39.5318 32.0619 37.3325C33.5056 35.5806 34.7282 33.6349 35.6931 31.54L42.2188 33.1428ZM12.4333 20.3277V17.2264L4.72176 11.5233V14.6171L12.4333 20.3277ZM13.3024 28.4462L5.48776 30.3621C5.89286 31.3014 6.32741 32.2333 6.78406 33.1428L13.3024 31.54C14.2673 33.6349 15.4899 35.5806 16.9335 37.3325C18.7454 39.5318 20.3731 40.9333 22.3912 42.2901V39.1963C20.3731 37.8395 18.738 36.4379 16.9335 34.2387C15.4825 32.4868 14.2599 30.541 13.3024 28.4462Z" fill="#01052D"/>
</g>
</g>
</g>
</g>
</g>
</g>
<g id="Group 1">
<g id="Group_14">
<g id="Group 2">
<path id="Vector_13" d="M181.225 16.1242V40.781C181.006 40.7947 180.827 40.8221 180.649 40.8221C178.855 40.8221 177.06 40.8221 175.266 40.8221C174.65 40.8221 174.65 40.8221 174.65 40.1783C174.65 32.384 174.65 24.6034 174.65 16.8091C174.65 16.6036 174.65 16.4118 174.65 16.0968C156.541 16.042 138.486 16.0968 120.336 16.0831C120.487 16.6584 120.816 17.0283 121.213 17.3296C122.035 17.9597 123.021 18.2063 123.98 18.5077C124.72 18.7405 125.459 18.9871 126.213 19.083C126.843 19.1652 127.5 19.0419 128.144 18.9734C131.034 18.6858 133.884 18.7816 136.678 19.6583C138.473 20.2199 139.979 21.2336 140.966 22.8911C142.294 25.1102 142.034 28.2471 140.445 30.2881C138.733 32.4799 136.555 34.0688 134.075 35.2606C132.952 35.7948 131.774 36.2332 130.623 36.7126C130.432 36.7948 130.24 36.8633 130.048 36.9318C130.048 36.9729 130.034 37.014 130.034 37.0551C133.966 38.1235 137.884 39.2057 141.87 40.2878C140.925 42.2193 140.02 44.0959 139.089 46C138.623 45.8767 138.171 45.7671 137.733 45.6301C131.281 43.7809 124.829 41.9316 118.377 40.0961C117.966 39.9728 117.843 39.8084 117.857 39.3974C117.898 38.0139 117.884 36.6304 117.898 35.2332C117.898 35.0414 117.898 34.8633 117.898 34.6579C118.98 34.4387 120.007 34.2195 121.035 34.0141C123.72 33.4524 126.363 32.7538 128.939 31.836C130.843 31.1511 132.706 30.384 134.308 29.0964C134.856 28.6444 135.322 28.1238 135.596 27.4663C135.911 26.6855 135.719 26.0006 135.007 25.5486C133.98 24.9047 132.829 24.6034 131.596 24.439C131.528 24.6445 131.459 24.8089 131.418 24.9869C130.993 27.1239 129.719 28.6444 127.952 29.8087C126.213 30.973 124.322 31.795 122.322 32.3703C119.596 33.1648 116.87 32.1237 115.035 29.6306C114.857 29.8498 114.692 30.0553 114.514 30.2607C112.761 32.3566 110.542 33.7949 108.049 34.8496C106.117 35.6715 104.104 36.0688 102.035 36.288C100.734 36.4249 99.4874 36.2195 98.2683 35.7811C97.2272 35.3976 96.5286 34.6031 95.8985 33.7401C95.7889 33.5894 95.8026 33.3154 95.8026 33.0963C95.8026 27.6581 95.8026 22.2062 95.8026 16.768V16.1379H91.6932C91.748 16.4119 91.7891 16.6173 91.8301 16.8228C92.2822 18.8638 92.2137 20.9049 91.8027 22.9322C91.6795 23.5349 91.4466 24.1102 91.1863 24.6582C90.9809 25.1102 90.8713 25.5349 90.8713 26.028C90.885 31.7675 90.8713 37.4934 90.8713 43.233C90.8713 44.0959 90.8713 44.0959 89.9946 44.0959C88.2823 44.0959 86.57 44.0959 84.8577 44.0959C84.5016 44.0959 84.2687 44.0412 84.2824 43.6028C84.2824 43.4658 84.077 43.274 83.9263 43.1782C82.2688 42.1782 80.4606 41.4796 78.6525 40.8084C76.3786 39.9865 74.0088 39.5481 71.6253 39.1783C70.4335 38.9865 70.6801 39.1235 70.6664 38.055C70.6527 36.1784 70.6801 34.288 70.6527 32.4114C70.6527 32.0141 70.7897 31.836 71.1595 31.7264C73.8307 30.9867 76.4881 30.2334 79.1456 29.4936C80.4743 29.1238 81.803 28.7402 83.1455 28.3704C83.2277 28.343 83.2962 28.3156 83.4331 28.2745C81.2962 27.6581 79.4333 26.5485 77.447 25.7129C77.1594 25.5896 76.9813 25.6307 76.7758 25.8499C75.0909 27.6992 72.9814 28.9046 70.6527 29.7539C70.0911 29.9594 69.5157 30.1375 68.9404 30.2881C68.776 30.3292 68.5432 30.3018 68.4199 30.2196C66.6802 29.0964 64.9679 27.9457 63.242 26.8088C63.1872 26.7677 63.1187 26.7403 62.9817 26.6718C63.2557 26.5211 63.4337 26.4115 63.6118 26.3293C64.9405 25.8088 66.283 25.302 67.6117 24.7541C68.6665 24.3157 69.6801 23.7952 70.5842 23.0692C72.4198 21.5761 72.6937 18.7816 70.8445 16.8365C70.365 16.3297 69.8719 16.042 69.1185 16.0694C67.1049 16.1379 65.0775 16.0968 63.0639 16.0968C62.8995 16.0968 62.7351 16.0831 62.5023 16.0694V13.6859C62.5023 13.275 62.516 12.864 62.5023 12.4531C62.4886 12.1106 62.6392 11.9873 62.9543 12.001C63.0913 12.0147 63.2283 12.001 63.3652 12.001C73.1321 12.001 82.8989 12.001 92.6794 12.001C98.6656 12.001 104.652 12.0421 110.638 12.0421C121.076 12.0421 131.514 12.0284 141.952 12.0284C152.184 12.0284 162.417 12.0147 172.65 12.0147C176.06 12.0147 179.458 12.0284 182.868 12.0284C183.485 12.0284 183.499 12.0284 183.499 12.6448C183.499 13.6037 183.499 14.5626 183.499 15.5215C183.499 16.0968 183.471 16.1242 182.882 16.1242C182.348 16.1379 181.827 16.1242 181.225 16.1242ZM77.8443 16.1242C78.1045 16.6447 78.3648 17.1105 78.5566 17.5899C78.9127 18.5077 79.0223 19.4802 78.9949 20.4665C78.9812 20.8364 79.1319 21.0281 79.4606 21.1651C80.1182 21.4528 80.7757 21.7541 81.4058 22.0692C82.1592 22.4528 82.9263 22.6308 83.7756 22.6171C85.6522 22.576 86.9125 21.4117 86.8577 19.535C86.8303 18.5762 86.57 17.6173 86.4193 16.6584C86.3509 16.2201 86.118 16.0557 85.6522 16.0694C83.2003 16.0968 80.762 16.0831 78.31 16.0831C78.1593 16.0968 78.0086 16.1105 77.8443 16.1242ZM114.816 16.1242H102.131C102.022 16.7954 102.364 17.22 102.83 17.4803C103.528 17.8639 104.254 18.2611 105.022 18.4392C107.843 19.0967 110.679 19.7405 113.597 19.8775C113.816 19.8912 114.049 20.0556 114.227 20.2199C114.432 20.398 114.569 20.6446 114.816 20.9597V16.1242ZM102.104 29.7539C102.885 29.4525 103.624 29.1649 104.364 28.8635C106.09 28.1375 107.761 27.3293 109.213 26.1376C109.487 25.9047 109.72 25.6171 110.062 25.2609C107.323 24.6171 104.734 24.0143 102.104 23.3842V29.7539ZM120.391 26.7129C121.528 26.9047 122.61 26.8636 123.651 26.4115C124.473 26.0554 125.076 25.4938 125.267 24.5212C123.528 24.1924 121.843 23.8089 120.405 22.6719V26.7129H120.391ZM84.2687 37.1372V33.4113C81.9126 33.9456 79.625 34.4524 77.3237 34.9729C77.3237 35.0277 77.3237 35.0825 77.3237 35.151C79.7209 35.4661 82.0633 35.9044 84.2687 37.1372Z" fill="white"/>
<path id="Vector_14" d="M165.677 27.6718C165.54 27.8361 165.417 28.0142 165.266 28.1649C163.431 30.2744 160.581 30.7949 158.171 29.7265C155.965 28.7676 154.842 26.9868 154.527 24.6444C154.075 21.3021 156.321 18.6857 159.184 18.0967C162.047 17.5077 164.842 17.7405 167.321 19.5076C168.403 20.2747 169.294 21.261 169.965 22.3979C172.033 25.9047 172.472 29.6169 171.252 33.5072C170.636 35.466 169.444 37.055 167.773 38.2742C165.938 39.6029 163.883 40.3837 161.636 40.644C159.54 40.8905 157.431 40.959 155.349 40.5618C151.554 39.8221 148.472 37.9865 146.5 34.5209C145.596 32.9319 144.966 31.247 144.76 29.4114C144.637 28.2882 144.527 27.1649 144.513 26.0417C144.472 23.9047 144.5 21.7678 144.5 19.6172C144.5 18.946 144.5 18.946 145.144 18.946C146.911 18.946 148.664 18.946 150.431 18.946C151.034 18.946 151.061 18.9734 151.061 19.5898C151.061 22.0829 150.979 24.5896 151.089 27.0827C151.198 29.5073 151.952 31.7401 153.815 33.4113C154.938 34.4113 156.294 35.0962 157.828 35.2058C158.992 35.288 160.198 35.3565 161.349 35.1921C163.746 34.8633 165.636 33.288 165.91 30.7127C165.992 29.8772 165.924 29.0142 165.91 28.1649C165.91 28.0005 165.842 27.8361 165.801 27.6718C165.759 27.6991 165.718 27.6854 165.677 27.6718Z" fill="white"/>
</g>
</g>
</g>
</g>
</g>
</g>
<defs>
<filter id="filter0_f_0_1" x="-180.7" y="-970.7" width="1624.4" height="1624.4" filterUnits="userSpaceOnUse" color-interpolation-filters="sRGB">
<feFlood flood-opacity="0" result="BackgroundImageFix"/>
<feBlend mode="normal" in="SourceGraphic" in2="BackgroundImageFix" result="shape"/>
<feGaussianBlur stdDeviation="160.35" result="effect1_foregroundBlur_0_1"/>
</filter>
<filter id="filter1_b_0_1" x="-119" y="-100" width="1500" height="258" filterUnits="userSpaceOnUse" color-interpolation-filters="sRGB">
<feFlood flood-opacity="0" result="BackgroundImageFix"/>
<feGaussianBlur in="BackgroundImageFix" stdDeviation="40"/>
<feComposite in2="SourceAlpha" operator="in" result="effect1_backgroundBlur_0_1"/>
<feBlend mode="normal" in="SourceGraphic" in2="effect1_backgroundBlur_0_1" result="shape"/>
</filter>
<linearGradient id="paint0_linear_0_1" x1="24.4977" y1="72.5522" x2="24.4977" y2="-15.0359" gradientUnits="userSpaceOnUse">
<stop stop-color="#6F390A"/>
<stop offset="1" stop-color="#FEF7A2"/>
</linearGradient>
<linearGradient id="paint1_linear_0_1" x1="24.4922" y1="50.2415" x2="24.4937" y2="-2.21774" gradientUnits="userSpaceOnUse">
<stop stop-color="#01052D"/>
<stop offset="1" stop-color="#1F32B4"/>
</linearGradient>
<clipPath id="clip0_0_1">
<rect width="1440" height="4448" fill="white" transform="translate(-89 -70)"/>
</clipPath>
</defs>
</svg>
